<svg xmlns="http://www.w3.org/2000/svg" viewBox="0 0 312.68 312.68"><defs><style>.cls-1{fill:#ff1f52;}</style></defs><title>remote</title><g id="Слой_1" data-name="Слой 1"><path class="cls-1" d="M156.34,0A156.34,156.34,0,1,0,312.68,156.34,156.34,156.34,0,0,0,156.34,0Zm0,307.6A151.26,151.26,0,1,1,307.6,156.34,151.26,151.26,0,0,1,156.34,307.6Z"/></g><g id="Слой_2" data-name="Слой 2"><path class="cls-1" d="M113.92,156.34a24.14,24.14,0,0,1,1.63-9,21.4,21.4,0,0,1,4.52-7.09,20.55,20.55,0,0,1,7-4.68,24.61,24.61,0,0,1,17.92,0,20.55,20.55,0,0,1,7,4.68,21.4,21.4,0,0,1,4.53,7.09,25.71,25.71,0,0,1,0,18,21.33,21.33,0,0,1-4.53,7.12,20.17,20.17,0,0,1-7,4.65,25,25,0,0,1-17.92,0,20.18,20.18,0,0,1-7-4.65,21.33,21.33,0,0,1-4.52-7.12A24.38,24.38,0,0,1,113.92,156.34Zm4,0a21.3,21.3,0,0,0,1.27,7.42,17.62,17.62,0,0,0,3.62,6,16.74,16.74,0,0,0,5.7,4,20.21,20.21,0,0,0,15,0,16.74,16.74,0,0,0,5.7-4,17.62,17.62,0,0,0,3.62-6,22.37,22.37,0,0,0,0-14.84,17.62,17.62,0,0,0-3.62-6,16.74,16.74,0,0,0-5.7-4,20.21,20.21,0,0,0-15,0,16.74,16.74,0,0,0-5.7,4,17.62,17.62,0,0,0-3.62,6A21.31,21.31,0,0,0,117.9,156.34Z"/><path class="cls-1" d="M167,135h4V153.8h.36L192.06,135h5.49l-21.6,19.55,22.81,23.17H193l-21.66-22.08H171V177.7h-4Z"/></g></svg>