<svg id="Слой_1" data-name="Слой 1" xmlns="http://www.w3.org/2000/svg" viewBox="0 0 50.62 91.74"><defs><style>.cls-1{fill:#ff1f52;}</style></defs><title>remote</title><path class="cls-1" d="M49,44.29a1.58,1.58,0,0,0-1.58,1.58v9.49a22.14,22.14,0,1,1-44.29,0V45.87a1.58,1.58,0,1,0-3.16,0v9.49A25.32,25.32,0,0,0,23.73,80.59v8H15.82a1.58,1.58,0,0,0,0,3.16h19a1.58,1.58,0,0,0,0-3.16H26.89v-8A25.32,25.32,0,0,0,50.62,55.36V45.87A1.58,1.58,0,0,0,49,44.29Z"/><path class="cls-1" d="M25.31,72.76a17.42,17.42,0,0,0,17.4-17.4v-38a17.4,17.4,0,0,0-34.8,0v38A17.42,17.42,0,0,0,25.31,72.76ZM11.07,17.4a14.24,14.24,0,0,1,28.47,0v38a14.24,14.24,0,0,1-28.47,0Z"/></svg>